  0
SECTION
  2
HEADER
  9
$ACADVER
  1
AC1015
  9
$ACADMAINTVER
 70
     6
  9
$DWGCODEPAGE
  3
ANSI_1252
  9
$INSBASE
 10
0.0
 20
0.0
 30
0.0
  9
$EXTMIN
 10
0.0
 20
0.0
 30
0.0
  9
$EXTMAX
 10
160.0
 20
160.0
 30
0.0
  9
$LIMMIN
 10
0.0
 20
0.0
  9
$LIMMAX
 10
160.0
 20
160.0
  9
$ORTHOMODE
 70
     0
  9
$REGENMODE
 70
     1
  9
$FILLMODE
 70
     1
  9
$QTEXTMODE
 70
     0
  9
$MIRRTEXT
 70
     1
  9
$LTSCALE
 40
1.0
  9
$ATTMODE
 70
     1
  9
$TEXTSIZE
 40
3.5
  9
$TRACEWID
 40
1.0
  9
$TEXTSTYLE
  7
Standard
  9
$CLAYER
  8
0
  9
$CELTYPE
  6
ByLayer
  9
$CECOLOR
 62
   256
  9
$CELTSCALE
 40
1.0
  9
$DISPSILH
 70
     0
  9
$DIMSCALE
 40
1.0
  9
$DIMASZ
 40
3.302
  9
$DIMEXO
 40
1.0
  9
$DIMDLI
 40
3.75
  9
$DIMRND
 40
0.0
  9
$DIMDLE
 40
0.0
  9
$DIMEXE
 40
1.0
  9
$DIMTP
 40
0.0
  9
$DIMTM
 40
0.0
  9
$DIMTXT
 40
3.5
  9
$DIMCEN
 40
2.5
  9
$DIMTSZ
 40
0.0
  9
$DIMTOL
 70
     0
  9
$DIMLIM
 70
     0
  9
$DIMTIH
 70
     1
  9
$DIMTOH
 70
     1
  9
$DIMSE1
 70
     0
  9
$DIMSE2
 70
     0
  9
$DIMTAD
 70
     1
  9
$DIMZIN
 70
     1
  9
$DIMBLK
  1

  9
$DIMASO
 70
     1
  9
$DIMSHO
 70
     1
  9
$DIMPOST
  1

  9
$DIMAPOST
  1

  9
$DIMALT
 70
     0
  9
$DIMALTD
 70
     3
  9
$DIMALTF
 40
0.0393700787
  9
$DIMLFAC
 40
2.0
  9
$DIMTOFL
 70
     1
  9
$DIMTVP
 40
0.0
  9
$DIMTIX
 70
     0
  9
$DIMSOXD
 70
     0
  9
$DIMSAH
 70
     0
  9
$DIMBLK1
  1

  9
$DIMBLK2
  1

  9
$DIMSTYLE
  2
ISO-25
  9
$DIMCLRD
 70
     0
  9
$DIMCLRE
 70
     0
  9
$DIMCLRT
 70
     0
  9
$DIMTFAC
 40
1.0
  9
$DIMGAP
 40
1.524
  9
$DIMJUST
 70
     0
  9
$DIMSD1
 70
     0
  9
$DIMSD2
 70
     0
  9
$DIMTOLJ
 70
     0
  9
$DIMTZIN
 70
     1
  9
$DIMALTZ
 70
     0
  9
$DIMALTTZ
 70
     0
  9
$DIMUPT
 70
     0
  9
$DIMDEC
 70
     2
  9
$DIMTDEC
 70
     2
  9
$DIMALTU
 70
     2
  9
$DIMALTTD
 70
     3
  9
$DIMTXSTY
  7
Standard
  9
$DIMAUNIT
 70
     0
  9
$DIMADEC
 70
     2
  9
$DIMALTRND
 40
0.0
  9
$DIMAZIN
 70
     0
  9
$DIMDSEP
 70
    44
  9
$DIMATFIT
 70
     3
  9
$DIMFRAC
 70
     0
  9
$DIMLDRBLK
  1

  9
$DIMLUNIT
 70
     2
  9
$DIMLWD
 70
    -2
  9
$DIMLWE
 70
    -2
  9
$DIMTMOVE
 70
     0
  9
$LUNITS
 70
     2
  9
$LUPREC
 70
     3
  9
$SKETCHINC
 40
1.0
  9
$FILLETRAD
 40
0.0
  9
$AUNITS
 70
     0
  9
$AUPREC
 70
     3
  9
$MENU
  1
.
  9
$ELEVATION
 40
0.0
  9
$PELEVATION
 40
0.0
  9
$THICKNESS
 40
0.0
  9
$LIMCHECK
 70
     0
  9
$CHAMFERA
 40
0.0
  9
$CHAMFERB
 40
0.0
  9
$CHAMFERC
 40
0.0
  9
$CHAMFERD
 40
0.0
  9
$SKPOLY
 70
     0
  9
$TDCREATE
 40
2460204.752373206
  9
$TDUCREATE
 40
2460204.669039872
  9
$TDUPDATE
 40
2460204.752374143
  9
$TDUUPDATE
 40
2460204.66904081
  9
$TDINDWG
 40
0.0000000116
  9
$TDUSRTIMER
 40
0.0000000116
  9
$USRTIMER
 70
     1
  9
$ANGBASE
 50
0.0
  9
$ANGDIR
 70
     0
  9
$PDMODE
 70
     0
  9
$PDSIZE
 40
-1.0
  9
$PLINEWID
 40
0.0
  9
$SPLFRAME
 70
     0
  9
$SPLINETYPE
 70
     6
  9
$SPLINESEGS
 70
     8
  9
$HANDSEED
  5
14E
  9
$SURFTAB1
 70
     6
  9
$SURFTAB2
 70
     6
  9
$SURFTYPE
 70
     6
  9
$SURFU
 70
     6
  9
$SURFV
 70
     6
  9
$UCSBASE
  2

  9
$UCSNAME
  2

  9
$UCSORG
 10
0.0
 20
0.0
 30
0.0
  9
$UCSXDIR
 10
1.0
 20
0.0
 30
0.0
  9
$UCSYDIR
 10
0.0
 20
1.0
 30
0.0
  9
$UCSORTHOREF
  2

  9
$UCSORTHOVIEW
 70
     0
  9
$UCSORGTOP
 10
0.0
 20
0.0
 30
0.0
  9
$UCSORGBOTTOM
 10
0.0
 20
0.0
 30
0.0
  9
$UCSORGLEFT
 10
0.0
 20
0.0
 30
0.0
  9
$UCSORGRIGHT
 10
0.0
 20
0.0
 30
0.0
  9
$UCSORGFRONT
 10
0.0
 20
0.0
 30
0.0
  9
$UCSORGBACK
 10
0.0
 20
0.0
 30
0.0
  9
$PUCSBASE
  2

  9
$PUCSNAME
  2

  9
$PUCSORG
 10
0.0
 20
0.0
 30
0.0
  9
$PUCSXDIR
 10
1.0
 20
0.0
 30
0.0
  9
$PUCSYDIR
 10
0.0
 20
1.0
 30
0.0
  9
$PUCSORTHOREF
  2

  9
$PUCSORTHOVIEW
 70
     0
  9
$PUCSORGTOP
 10
0.0
 20
0.0
 30
0.0
  9
$PUCSORGBOTTOM
 10
0.0
 20
0.0
 30
0.0
  9
$PUCSORGLEFT
 10
0.0
 20
0.0
 30
0.0
  9
$PUCSORGRIGHT
 10
0.0
 20
0.0
 30
0.0
  9
$PUCSORGFRONT
 10
0.0
 20
0.0
 30
0.0
  9
$PUCSORGBACK
 10
0.0
 20
0.0
 30
0.0
  9
$USERI1
 70
     0
  9
$USERI2
 70
     0
  9
$USERI3
 70
     0
  9
$USERI4
 70
     0
  9
$USERI5
 70
     0
  9
$USERR1
 40
0.0
  9
$USERR2
 40
0.0
  9
$USERR3
 40
0.0
  9
$USERR4
 40
0.0
  9
$USERR5
 40
0.0
  9
$WORLDVIEW
 70
     1
  9
$SHADEDGE
 70
     3
  9
$SHADEDIF
 70
    70
  9
$TILEMODE
 70
     1
  9
$MAXACTVP
 70
    64
  9
$PINSBASE
 10
0.0
 20
0.0
 30
0.0
  9
$PLIMCHECK
 70
     0
  9
$PEXTMIN
 10
1.0000000000E+20
 20
1.0000000000E+20
 30
1.0000000000E+20
  9
$PEXTMAX
 10
-1.0000000000E+20
 20
-1.0000000000E+20
 30
-1.0000000000E+20
  9
$PLIMMIN
 10
0.0
 20
0.0
  9
$PLIMMAX
 10
420.0
 20
297.0
  9
$UNITMODE
 70
     0
  9
$VISRETAIN
 70
     1
  9
$PLINEGEN
 70
     0
  9
$PSLTSCALE
 70
     1
  9
$TREEDEPTH
 70
  3020
  9
$CMLSTYLE
  2
Standard
  9
$CMLJUST
 70
     0
  9
$CMLSCALE
 40
20.0
  9
$PROXYGRAPHICS
 70
     1
  9
$MEASUREMENT
 70
     1
  9
$CELWEIGHT
370
    -1
  9
$ENDCAPS
280
     0
  9
$JOINSTYLE
280
     0
  9
$LWDISPLAY
290
     1
  9
$INSUNITS
 70
     4
  9
$HYPERLINKBASE
  1

  9
$STYLESHEET
  1

  9
$XEDIT
290
     1
  9
$CEPSNTYPE
380
     0
  9
$PSTYLEMODE
290
     1
  9
$FINGERPRINTGUID
  2
{4e98901d-3d8e-44aa-b993-e19ceb3a6ead}
  9
$VERSIONGUID
  2
{FAEB1C32-E019-11D5-929B-00C0DF256EC4}
  9
$EXTNAMES
290
     1
  9
$PSVPSCALE
 40
0.0
  9
$OLESTARTUP
290
     0
  0
ENDSEC
  0
SECTION
  2
CLASSES
  0
CLASS
  1
ACDBDICTIONARYWDFLT
  2
AcDbDictionaryWithDefault
  3
ObjectDBX Classes
 90
        0
280
     0
281
     0
  0
CLASS
  1
VISUALSTYLE
  2
AcDbVisualStyle
  3
ObjectDBX Classes
 90
     4095
280
     0
281
     0
  0
CLASS
  1
MATERIAL
  2
AcDbMaterial
  3
ObjectDBX Classes
 90
     1153
280
     0
281
     0
  0
CLASS
  1
SCALE
  2
AcDbScale
  3
ObjectDBX Classes
 90
     1153
280
     0
281
     0
  0
CLASS
  1
TABLESTYLE
  2
AcDbTableStyle
  3
ObjectDBX Classes
 90
     4095
280
     0
281
     0
  0
CLASS
  1
MLEADERSTYLE
  2
AcDbMLeaderStyle
  3
ACDB_MLEADERSTYLE_CLASS
 90
     4095
280
     0
281
     0
  0
CLASS
  1
SUN
  2
AcDbSun
  3
SCENEOE
 90
     1153
280
     0
281
     0
  0
CLASS
  1
ACDBPLACEHOLDER
  2
AcDbPlaceHolder
  3
ObjectDBX Classes
 90
        0
280
     0
281
     0
  0
CLASS
  1
LAYOUT
  2
AcDbLayout
  3
ObjectDBX Classes
 90
        0
280
     0
281
     0
  0
ENDSEC
  0
SECTION
  2
TABLES
  0
TABLE
  2
VPORT
  5
8
330
0
100
AcDbSymbolTable
 70
     1
  0
VPORT
  5
29
330
8
100
AcDbSymbolTableRecord
100
AcDbViewportTableRecord
  2
*Active
 70
     0
 10
0.0
 20
0.0
 11
1.0
 21
1.0
 12
80.0
 22
80.0
 13
0.0
 23
0.0
 14
10.0
 24
10.0
 15
10.0
 25
10.0
 16
0.0
 26
0.0
 36
1.0
 17
0.0
 27
0.0
 37
0.0
 40
160.0
 41
1.0
 42
50.0
 43
0.0
 44
0.0
 50
0.0
 51
0.0
 71
     0
 72
  2000
 73
     1
 74
     3
 75
     0
 76
     0
 77
     0
 78
     0
281
     0
 65
     1
110
0.0
120
0.0
130
0.0
111
1.0
121
0.0
131
0.0
112
0.0
122
1.0
132
0.0
 79
     0
146
0.0
  0
ENDTAB
  0
TABLE
  2
LTYPE
  5
5
330
0
100
AcDbSymbolTable
 70
     6
  0
LTYPE
  5
14
330
5
100
AcDbSymbolTableRecord
100
AcDbLinetypeTableRecord
  2
ByBlock
 70
     0
  3

 72
    65
 73
     0
 40
0.0
  0
LTYPE
  5
15
330
5
100
AcDbSymbolTableRecord
100
AcDbLinetypeTableRecord
  2
ByLayer
 70
     0
  3

 72
    65
 73
     0
 40
0.0
  0
LTYPE
  5
16
330
5
100
AcDbSymbolTableRecord
100
AcDbLinetypeTableRecord
  2
Continuous
 70
     0
  3
Solid line
 72
    65
 73
     0
 40
0.0
  0
LTYPE
  5
5E
330
5
100
AcDbSymbolTableRecord
100
AcDbLinetypeTableRecord
  2
HIDDEN
 70
     0
  3
Hidden __ __ __ __ __ __ __ __ __ __ __ __ __ __
 72
    65
 73
     2
 40
1.905
 49
1.27
 74
     0
 49
-0.635
 74
     0
  0
LTYPE
  5
5F
330
5
100
AcDbSymbolTableRecord
100
AcDbLinetypeTableRecord
  2
PHANTOM
 70
     0
  3
Phantom ______  __  __  ______  __  __  ______
 72
    65
 73
     6
 40
12.7
 49
6.35
 74
     0
 49
-1.27
 74
     0
 49
1.27
 74
     0
 49
-1.27
 74
     0
 49
1.27
 74
     0
 49
-1.27
 74
     0
  0
LTYPE
  5
60
330
5
100
AcDbSymbolTableRecord
100
AcDbLinetypeTableRecord
  2
CENTER
 70
     0
  3
Center ____ _ ____ _ ____ _ ____ _ ____ _ ____
 72
    65
 73
     4
 40
10.16
 49
6.35
 74
     0
 49
-1.27
 74
     0
 49
1.27
 74
     0
 49
-1.27
 74
     0
  0
LTYPE
  5
61
330
5
100
AcDbSymbolTableRecord
100
AcDbLinetypeTableRecord
  2
CENTERX2
 70
     0
  3
Center (2x) ________  __  ________  __  _____
 72
    65
 73
     4
 40
20.32
 49
12.7
 74
     0
 49
-2.54
 74
     0
 49
2.54
 74
     0
 49
-2.54
 74
     0
  0
LTYPE
  5
62
330
5
100
AcDbSymbolTableRecord
100
AcDbLinetypeTableRecord
  2
DOT2
 70
     0
  3
Dot (.5x) ........................................
 72
    65
 73
     2
 40
0.635
 49
0.0
 74
     0
 49
-0.635
 74
     0
  0
ENDTAB
  0
TABLE
  2
LAYER
  5
2
330
0
100
AcDbSymbolTable
 70
     1
  0
LAYER
  5
10
330
2
100
AcDbSymbolTableRecord
100
AcDbLayerTableRecord
  2
0
 70
     0
 62
     7
  6
Continuous
370
    -3
390
F
  0
ENDTAB
  0
TABLE
  2
STYLE
  5
3
330
0
100
AcDbSymbolTable
 70
     2
  0
STYLE
  5
11
330
3
100
AcDbSymbolTableRecord
100
AcDbTextStyleTableRecord
  2
Standard
 70
     0
 40
0.0
 41
1.0
 50
0.0
 71
     0
 42
3.5
  3
txt
  4

  0
STYLE
  5
14A
330
3
100
AcDbSymbolTableRecord
100
AcDbTextStyleTableRecord
  2
SLDTEXTSTYLE0
 70
     0
 40
0.0
 41
0.7
 50
0.0
 71
     0
 42
3.5
  3
TXT
  4

  0
ENDTAB
  0
TABLE
  2
VIEW
  5
6
330
0
100
AcDbSymbolTable
 70
     0
  0
ENDTAB
  0
TABLE
  2
UCS
  5
7
330
0
100
AcDbSymbolTable
 70
     0
  0
ENDTAB
  0
TABLE
  2
APPID
  5
9
330
0
100
AcDbSymbolTable
 70
     1
  0
APPID
  5
12
330
9
100
AcDbSymbolTableRecord
100
AcDbRegAppTableRecord
  2
ACAD
 70
     0
  0
ENDTAB
  0
TABLE
  2
DIMSTYLE
  5
A
330
0
100
AcDbSymbolTable
 70
     1
100
AcDbDimStyleTable
  0
DIMSTYLE
105
27
330
A
100
AcDbSymbolTableRecord
100
AcDbDimStyleTableRecord
  2
ISO-25
 70
     0
 41
2.5
 42
0.625
 43
3.75
 44
1.25
 73
     0
 74
     0
 77
     1
 78
     8
140
2.5
141
2.5
143
0.0393700787
147
0.625
171
     3
172
     1
178
     0
271
     2
272
     2
274
     3
278
    44
283
     0
284
     8
340
11
  0
ENDTAB
  0
TABLE
  2
BLOCK_RECORD
  5
1
330
0
100
AcDbSymbolTable
 70
     1
  0
BLOCK_RECORD
  5
1F
330
1
100
AcDbSymbolTableRecord
100
AcDbBlockTableRecord
  2
*Model_Space
340
22
  0
BLOCK_RECORD
  5
1B
330
1
100
AcDbSymbolTableRecord
100
AcDbBlockTableRecord
  2
*Paper_Space
340
1E
  0
BLOCK_RECORD
  5
23
330
1
100
AcDbSymbolTableRecord
100
AcDbBlockTableRecord
  2
*Paper_Space0
340
26
  0
ENDTAB
  0
ENDSEC
  0
SECTION
  2
BLOCKS
  0
BLOCK
  5
20
330
1F
100
AcDbEntity
  8
0
100
AcDbBlockBegin
  2
*Model_Space
 70
     0
 10
0.0
 20
0.0
 30
0.0
  3
*Model_Space
  1

  0
ENDBLK
  5
21
330
1F
100
AcDbEntity
  8
0
100
AcDbBlockEnd
  0
BLOCK
  5
1C
330
1B
100
AcDbEntity
 67
     1
  8
0
100
AcDbBlockBegin
  2
*Paper_Space
 70
     0
 10
0.0
 20
0.0
 30
0.0
  3
*Paper_Space
  1

  0
ENDBLK
  5
1D
330
1B
100
AcDbEntity
 67
     1
  8
0
100
AcDbBlockEnd
  0
BLOCK
  5
24
330
23
100
AcDbEntity
  8
0
100
AcDbBlockBegin
  2
*Paper_Space0
 70
     0
 10
0.0
 20
0.0
 30
0.0
  3
*Paper_Space0
  1

  0
ENDBLK
  5
25
330
23
100
AcDbEntity
  8
0
100
AcDbBlockEnd
  0
ENDSEC
  0
SECTION
  2
ENTITIES
  0
LINE
  5
63
330
1F
100
AcDbEntity
  8
0
  6
Continuous
 62
     7
100
AcDbLine
 10
40.1845465754
 20
122.2292101306
 30
0.0
 11
40.2138859012
 21
122.2292101306
 31
0.0
  0
LINE
  5
64
330
1F
100
AcDbEntity
  8
0
  6
Continuous
 62
     7
100
AcDbLine
 10
40.1845465754
 20
122.2292101306
 30
0.0
 11
40.1845465754
 21
122.2878887823
 31
0.0
  0
LINE
  5
65
330
1F
100
AcDbEntity
  8
0
  6
Continuous
 62
     7
100
AcDbLine
 10
40.1845465754
 20
122.2292101306
 30
0.0
 11
40.2138859012
 21
122.2292101306
 31
0.0
  0
LINE
  5
66
330
1F
100
AcDbEntity
  8
0
  6
Continuous
 62
     7
100
AcDbLine
 10
40.1845465754
 20
122.2292101306
 30
0.0
 11
40.1845465754
 21
122.2878887823
 31
0.0
  0
LINE
  5
67
330
1F
100
AcDbEntity
  8
0
  6
Continuous
 62
     7
100
AcDbLine
 10
110.7974003829
 20
48.5561767106
 30
0.0
 11
110.8267397087
 21
48.5561767106
 31
0.0
  0
LINE
  5
68
330
1F
100
AcDbEntity
  8
0
  6
Continuous
 62
     7
100
AcDbLine
 10
110.7974003829
 20
48.5561767106
 30
0.0
 11
110.7974003829
 21
48.6148553623
 31
0.0
  0
LINE
  5
69
330
1F
100
AcDbEntity
  8
0
  6
Continuous
 62
     7
100
AcDbLine
 10
113.6906404755
 20
123.0418431382
 30
0.0
 11
113.7199798014
 21
123.0418431382
 31
0.0
  0
LINE
  5
6A
330
1F
100
AcDbEntity
  8
0
  6
Continuous
 62
     7
100
AcDbLine
 10
113.6906404755
 20
123.0418431382
 30
0.0
 11
113.6906404755
 21
123.1005217899
 31
0.0
  0
LINE
  5
6B
330
1F
100
AcDbEntity
  8
0
  6
Continuous
 62
     7
100
AcDbLine
 10
37.2039625803
 20
48.2008885588
 30
0.0
 11
37.2333019062
 21
48.2008885588
 31
0.0
  0
LINE
  5
6C
330
1F
100
AcDbEntity
  8
0
  6
Continuous
 62
     7
100
AcDbLine
 10
37.2039625803
 20
48.2008885588
 30
0.0
 11
37.2039625803
 21
48.2595672105
 31
0.0
  0
POINT
  5
6D
330
1F
100
AcDbEntity
  8
0
  6
Continuous
 62
     7
100
AcDbPoint
 10
40.1845465754
 20
122.2292101306
 30
0.0
  0
POINT
  5
6E
330
1F
100
AcDbEntity
  8
0
  6
Continuous
 62
     7
100
AcDbPoint
 10
40.1845465754
 20
122.2292101306
 30
0.0
  0
POINT
  5
6F
330
1F
100
AcDbEntity
  8
0
  6
Continuous
 62
     7
100
AcDbPoint
 10
110.7974003829
 20
48.5561767106
 30
0.0
  0
POINT
  5
70
330
1F
100
AcDbEntity
  8
0
  6
Continuous
 62
     7
100
AcDbPoint
 10
113.6906404755
 20
123.0418431382
 30
0.0
  0
POINT
  5
71
330
1F
100
AcDbEntity
  8
0
  6
Continuous
 62
     7
100
AcDbPoint
 10
37.2039625803
 20
48.2008885588
 30
0.0
  0
ARC
  5
72
330
1F
100
AcDbEntity
  8
0
  6
Continuous
 62
     7
370
    25
100
AcDbCircle
 10
68.5811026581
 20
93.2316017924
 30
0.0
 40
6.08602822024067
100
AcDbArc
 50
96.2075021052
 51
172.5924978948
  0
ARC
  5
73
330
1F
100
AcDbEntity
  8
0
  6
Continuous
 62
     7
370
    25
100
AcDbCircle
 10
60.4775606855
 20
87.0806786531
 30
0.0
 40
6.086028220240672
100
AcDbArc
 50
81.8075021052
 51
158.1924978948
  0
ARC
  5
74
330
1F
100
AcDbEntity
  8
0
  6
Continuous
 62
     7
370
    25
100
AcDbCircle
 10
51.0989340038
 20
83.1382670138
 30
0.0
 40
6.086028220240752
100
AcDbArc
 50
67.4075021052
 51
143.7924978948
  0
ARC
  5
75
330
1F
100
AcDbEntity
  8
0
  6
Continuous
 62
     7
370
    25
100
AcDbCircle
 10
41.0345162198
 20
81.652083097
 30
0.0
 40
6.086028220240761
100
AcDbArc
 50
53.0075021052
 51
129.3924978948
  0
ARC
  5
76
330
1F
100
AcDbEntity
  8
0
  6
Continuous
 62
     7
370
    25
100
AcDbCircle
 10
30.9166917169
 20
82.7155093039
 30
0.0
 40
6.086028220240649
100
AcDbArc
 50
38.6075021052
 51
114.9924978948
  0
ARC
  5
77
330
1F
100
AcDbEntity
  8
0
  6
Continuous
 62
     7
370
    25
100
AcDbCircle
 10
21.3812006197
 20
86.261726655
 30
0.0
 40
6.086028220240766
100
AcDbArc
 50
24.2075021052
 51
100.5924978948
  0
ARC
  5
78
330
1F
100
AcDbEntity
  8
0
  6
Continuous
 62
     7
370
    25
100
AcDbCircle
 10
13.0271929027
 20
92.067913272
 30
0.0
 40
6.086028220240668
100
AcDbArc
 50
9.8075021052
 51
86.1924978948
  0
ARC
  5
79
330
1F
100
AcDbEntity
  8
0
  6
Continuous
 62
     7
370
    25
100
AcDbCircle
 10
6.3795815947
 20
99.7692450961
 30
0.0
 40
6.086028220240663
100
AcDbArc
 50
355.4075021052
 51
71.7924978948
  0
ARC
  5
7A
330
1F
100
AcDbEntity
  8
0
  6
Continuous
 62
     7
370
    25
100
AcDbCircle
 10
1.8560605624
 20
108.8818191253
 30
0.0
 40
6.086028220240665
100
AcDbArc
 50
341.0075021052
 51
57.3924978948
  0
ARC
  5
7B
330
1F
100
AcDbEntity
  8
0
  6
Continuous
 62
     7
370
    25
100
AcDbCircle
 10
-0.2591407314
 20
118.8330588197
 30
0.0
 40
6.086028220240767
100
AcDbArc
 50
326.6075021052
 51
42.9924978948
  0
ARC
  5
7C
330
1F
100
AcDbEntity
  8
0
  6
Continuous
 62
     7
370
    25
100
AcDbCircle
 10
0.1668835898
 20
128.997691191
 30
0.0
 40
6.086028220240558
100
AcDbArc
 50
312.2075021053
 51
28.5924978948
  0
ARC
  5
7D
330
1F
100
AcDbEntity
  8
0
  6
Continuous
 62
     7
370
    25
100
AcDbCircle
 10
3.107364851
 20
138.7370350046
 30
0.0
 40
6.086028220240651
100
AcDbArc
 50
297.8075021052
 51
14.1924978948
  0
ARC
  5
7E
330
1F
100
AcDbEntity
  8
0
  6
Continuous
 62
     7
370
    25
100
AcDbCircle
 10
8.3775418003
 20
147.4391314699
 30
0.0
 40
6.086028220240684
100
AcDbArc
 50
283.4075021052
 51
359.7924978948
  0
ARC
  5
7F
330
1F
100
AcDbEntity
  8
0
  6
Continuous
 62
     7
370
    25
100
AcDbCircle
 10
15.6462698376
 20
154.5571958618
 30
0.0
 40
6.086028220240547
100
AcDbArc
 50
269.0075021053
 51
345.3924978948
  0
ARC
  5
80
330
1F
100
AcDbEntity
  8
0
  6
Continuous
 62
     7
370
    25
100
AcDbCircle
 10
24.4568280478
 20
159.6439740161
 30
0.0
 40
6.08602822024077
100
AcDbArc
 50
254.6075021052
 51
330.9924978948
  0
ARC
  5
81
330
1F
100
AcDbEntity
  8
0
  6
Continuous
 62
     7
370
    25
100
AcDbCircle
 10
34.2556166556
 20
162.3798449537
 30
0.0
 40
6.086028220240558
100
AcDbArc
 50
240.2075021053
 51
316.5924978948
  0
ARC
  5
82
330
1F
100
AcDbEntity
  8
0
  6
Continuous
 62
     7
370
    25
100
AcDbCircle
 10
44.4269417354
 20
162.5929038416
 30
0.0
 40
6.08602822024055
100
AcDbArc
 50
225.8075021053
 51
302.1924978948
  0
ARC
  5
83
330
1F
100
AcDbEntity
  8
0
  6
Continuous
 62
     7
370
    25
100
AcDbCircle
 10
54.3317015248
 20
160.2697634064
 30
0.0
 40
6.086028220240656
100
AcDbArc
 50
211.4075021053
 51
287.7924978948
  0
ARC
  5
84
330
1F
100
AcDbEntity
  8
0
  6
Continuous
 62
     7
370
    25
100
AcDbCircle
 10
63.3475435391
 20
155.5563951055
 30
0.0
 40
6.08602822024067
100
AcDbArc
 50
197.0075021053
 51
273.3924978948
  0
ARC
  5
85
330
1F
100
AcDbEntity
  8
0
  6
Continuous
 62
     7
370
    25
100
AcDbCircle
 10
70.9079692666
 20
148.7489572038
 30
0.0
 40
6.086028220240672
100
AcDbArc
 50
182.6075021053
 51
258.9924978948
  0
ARC
  5
86
330
1F
100
AcDbEntity
  8
0
  6
Continuous
 62
     7
370
    25
100
AcDbCircle
 10
76.5379293536
 20
140.2751860607
 30
0.0
 40
6.086028220240672
100
AcDbArc
 50
168.2075021052
 51
244.5924978948
  0
ARC
  5
87
330
1F
100
AcDbEntity
  8
0
  6
Continuous
 62
     7
370
    25
100
AcDbCircle
 10
79.8836727023
 20
130.6675198814
 30
0.0
 40
6.086028220240769
100
AcDbArc
 50
153.8075021052
 51
230.1924978948
  0
ARC
  5
88
330
1F
100
AcDbEntity
  8
0
  6
Continuous
 62
     7
370
    25
100
AcDbCircle
 10
80.7349739532
 20
120.5296436666
 30
0.0
 40
6.086028220240751
100
AcDbArc
 50
139.4075021052
 51
215.7924978948
  0
ARC
  5
89
330
1F
100
AcDbEntity
  8
0
  6
Continuous
 62
     7
370
    25
100
AcDbCircle
 10
79.038342718
 20
110.4985574632
 30
0.0
 40
6.086028220240762
100
AcDbArc
 50
125.0075021052
 51
201.3924978948
  0
ARC
  5
8A
330
1F
100
AcDbEntity
  8
0
  6
Continuous
 62
     7
370
    25
100
AcDbCircle
 10
74.9003845768
 20
101.2045513093
 30
0.0
 40
6.086028220240533
100
AcDbArc
 50
110.6075021053
 51
186.9924978948
  0
LINE
  5
8B
330
1F
100
AcDbEntity
  8
0
  6
Continuous
 62
     7
370
    25
100
AcDbLine
 10
43.2595465754
 20
123.8292101306
 30
0.0
 11
37.1095465754
 21
123.8292101306
 31
0.0
  0
LINE
  5
8C
330
1F
100
AcDbEntity
  8
0
  6
Continuous
 62
     7
370
    25
100
AcDbLine
 10
37.1095465754
 20
123.8292101306
 30
0.0
 11
37.1095465754
 21
120.6292101306
 31
0.0
  0
LINE
  5
8D
330
1F
100
AcDbEntity
  8
0
  6
Continuous
 62
     7
370
    25
100
AcDbLine
 10
43.2595465754
 20
120.6292101306
 30
0.0
 11
43.2595465754
 21
123.8292101306
 31
0.0
  0
LINE
  5
8E
330
1F
100
AcDbEntity
  8
0
  6
Continuous
 62
     7
370
    25
100
AcDbLine
 10
37.1095465754
 20
120.6292101306
 30
0.0
 11
43.2595465754
 21
120.6292101306
 31
0.0
  0
ARC
  5
8F
330
1F
100
AcDbEntity
  8
0
  6
Continuous
 62
     7
370
    25
100
AcDbCircle
 10
40.1845465754
 20
122.2292101306
 30
0.0
 40
36.00000000000002
100
AcDbArc
 50
90.0
 51
92.4
  0
ARC
  5
90
330
1F
100
AcDbEntity
  8
0
  6
Continuous
 62
     7
370
    25
100
AcDbCircle
 10
40.1845465754
 20
122.2292101306
 30
0.0
 40
36.00000000000003
100
AcDbArc
 50
104.4
 51
106.8
  0
ARC
  5
91
330
1F
100
AcDbEntity
  8
0
  6
Continuous
 62
     7
370
    25
100
AcDbCircle
 10
40.1845465754
 20
122.2292101306
 30
0.0
 40
36.00000000000002
100
AcDbArc
 50
75.6
 51
78.0
  0
ARC
  5
92
330
1F
100
AcDbEntity
  8
0
  6
Continuous
 62
     7
370
    25
100
AcDbCircle
 10
40.1845465754
 20
122.2292101306
 30
0.0
 40
36.00000000000002
100
AcDbArc
 50
61.2
 51
63.6
  0
ARC
  5
93
330
1F
100
AcDbEntity
  8
0
  6
Continuous
 62
     7
370
    25
100
AcDbCircle
 10
40.1845465754
 20
122.2292101306
 30
0.0
 40
36.00000000000003
100
AcDbArc
 50
46.8
 51
49.2
  0
ARC
  5
94
330
1F
100
AcDbEntity
  8
0
  6
Continuous
 62
     7
370
    25
100
AcDbCircle
 10
40.1845465754
 20
122.2292101306
 30
0.0
 40
36.00000000000001
100
AcDbArc
 50
32.4
 51
34.8
  0
ARC
  5
95
330
1F
100
AcDbEntity
  8
0
  6
Continuous
 62
     7
370
    25
100
AcDbCircle
 10
40.1845465754
 20
122.2292101306
 30
0.0
 40
36.00000000000002
100
AcDbArc
 50
18.0
 51
20.4
  0
ARC
  5
96
330
1F
100
AcDbEntity
  8
0
  6
Continuous
 62
     7
370
    25
100
AcDbCircle
 10
40.1845465754
 20
122.2292101306
 30
0.0
 40
36.00000000000001
100
AcDbArc
 50
3.6
 51
6.0
  0
ARC
  5
97
330
1F
100
AcDbEntity
  8
0
  6
Continuous
 62
     7
370
    25
100
AcDbCircle
 10
40.1845465754
 20
122.2292101306
 30
0.0
 40
36.00000000000001
100
AcDbArc
 50
349.2
 51
351.6
  0
ARC
  5
98
330
1F
100
AcDbEntity
  8
0
  6
Continuous
 62
     7
370
    25
100
AcDbCircle
 10
40.1845465754
 20
122.2292101306
 30
0.0
 40
36.00000000000003
100
AcDbArc
 50
118.8
 51
121.2
  0
ARC
  5
99
330
1F
100
AcDbEntity
  8
0
  6
Continuous
 62
     7
370
    25
100
AcDbCircle
 10
40.1845465754
 20
122.2292101306
 30
0.0
 40
36.00000000000004
100
AcDbArc
 50
133.2
 51
135.6
  0
ARC
  5
9A
330
1F
100
AcDbEntity
  8
0
  6
Continuous
 62
     7
370
    25
100
AcDbCircle
 10
40.1845465754
 20
122.2292101306
 30
0.0
 40
36.00000000000001
100
AcDbArc
 50
147.6
 51
150.0
  0
ARC
  5
9B
330
1F
100
AcDbEntity
  8
0
  6
Continuous
 62
     7
370
    25
100
AcDbCircle
 10
40.1845465754
 20
122.2292101306
 30
0.0
 40
36.00000000000002
100
AcDbArc
 50
162.0
 51
164.4
  0
ARC
  5
9C
330
1F
100
AcDbEntity
  8
0
  6
Continuous
 62
     7
370
    25
100
AcDbCircle
 10
40.1845465754
 20
122.2292101306
 30
0.0
 40
36.00000000000002
100
AcDbArc
 50
176.4
 51
178.8
  0
ARC
  5
9D
330
1F
100
AcDbEntity
  8
0
  6
Continuous
 62
     7
370
    25
100
AcDbCircle
 10
40.1845465754
 20
122.2292101306
 30
0.0
 40
36.00000000000001
100
AcDbArc
 50
190.8
 51
193.2
  0
ARC
  5
9E
330
1F
100
AcDbEntity
  8
0
  6
Continuous
 62
     7
370
    25
100
AcDbCircle
 10
40.1845465754
 20
122.2292101306
 30
0.0
 40
36.00000000000001
100
AcDbArc
 50
205.2
 51
207.6
  0
ARC
  5
9F
330
1F
100
AcDbEntity
  8
0
  6
Continuous
 62
     7
370
    25
100
AcDbCircle
 10
40.1845465754
 20
122.2292101306
 30
0.0
 40
36.00000000000001
100
AcDbArc
 50
219.6
 51
222.0
  0
ARC
  5
A0
330
1F
100
AcDbEntity
  8
0
  6
Continuous
 62
     7
370
    25
100
AcDbCircle
 10
40.1845465754
 20
122.2292101306
 30
0.0
 40
36.0
100
AcDbArc
 50
234.0
 51
236.4
  0
ARC
  5
A1
330
1F
100
AcDbEntity
  8
0
  6
Continuous
 62
     7
370
    25
100
AcDbCircle
 10
40.1845465754
 20
122.2292101306
 30
0.0
 40
36.00000000000002
100
AcDbArc
 50
248.4
 51
250.8
  0
ARC
  5
A2
330
1F
100
AcDbEntity
  8
0
  6
Continuous
 62
     7
370
    25
100
AcDbCircle
 10
40.1845465754
 20
122.2292101306
 30
0.0
 40
36.00000000000001
100
AcDbArc
 50
262.8
 51
265.2
  0
ARC
  5
A3
330
1F
100
AcDbEntity
  8
0
  6
Continuous
 62
     7
370
    25
100
AcDbCircle
 10
40.1845465754
 20
122.2292101306
 30
0.0
 40
36.00000000000001
100
AcDbArc
 50
277.2
 51
279.6
  0
ARC
  5
A4
330
1F
100
AcDbEntity
  8
0
  6
Continuous
 62
     7
370
    25
100
AcDbCircle
 10
40.1845465754
 20
122.2292101306
 30
0.0
 40
36.00000000000001
100
AcDbArc
 50
291.6
 51
294.0
  0
ARC
  5
A5
330
1F
100
AcDbEntity
  8
0
  6
Continuous
 62
     7
370
    25
100
AcDbCircle
 10
40.1845465754
 20
122.2292101306
 30
0.0
 40
36.00000000000001
100
AcDbArc
 50
306.0
 51
308.4
  0
ARC
  5
A6
330
1F
100
AcDbEntity
  8
0
  6
Continuous
 62
     7
370
    25
100
AcDbCircle
 10
40.1845465754
 20
122.2292101306
 30
0.0
 40
36.00000000000001
100
AcDbArc
 50
320.4
 51
322.8
  0
ARC
  5
A7
330
1F
100
AcDbEntity
  8
0
  6
Continuous
 62
     7
370
    25
100
AcDbCircle
 10
40.1845465754
 20
122.2292101306
 30
0.0
 40
36.00000000000001
100
AcDbArc
 50
334.8
 51
337.2
  0
ARC
  5
A8
330
1F
100
AcDbEntity
  8
0
  6
Continuous
 62
     7
370
    25
100
AcDbCircle
 10
65.6005186631
 20
19.2032802206
 30
0.0
 40
6.08602822024067
100
AcDbArc
 50
96.2075021052
 51
172.5924978948
  0
ARC
  5
A9
330
1F
100
AcDbEntity
  8
0
  6
Continuous
 62
     7
370
    25
100
AcDbCircle
 10
57.4969766904
 20
13.0523570813
 30
0.0
 40
6.086028220240656
100
AcDbArc
 50
81.8075021052
 51
158.1924978948
  0
ARC
  5
AA
330
1F
100
AcDbEntity
  8
0
  6
Continuous
 62
     7
370
    25
100
AcDbCircle
 10
48.1183500088
 20
9.1099454421
 30
0.0
 40
6.086028220240763
100
AcDbArc
 50
67.4075021052
 51
143.7924978948
  0
ARC
  5
AB
330
1F
100
AcDbEntity
  8
0
  6
Continuous
 62
     7
370
    25
100
AcDbCircle
 10
38.0539322247
 20
7.6237615252
 30
0.0
 40
6.086028220240765
100
AcDbArc
 50
53.0075021052
 51
129.3924978948
  0
ARC
  5
AC
330
1F
100
AcDbEntity
  8
0
  6
Continuous
 62
     7
370
    25
100
AcDbCircle
 10
27.9361077219
 20
8.6871877321
 30
0.0
 40
6.086028220240666
100
AcDbArc
 50
38.6075021052
 51
114.9924978948
  0
ARC
  5
AD
330
1F
100
AcDbEntity
  8
0
  6
Continuous
 62
     7
370
    25
100
AcDbCircle
 10
18.4006166246
 20
12.2334050832
 30
0.0
 40
6.086028220240772
100
AcDbArc
 50
24.2075021052
 51
100.5924978948
  0
ARC
  5
AE
330
1F
100
AcDbEntity
  8
0
  6
Continuous
 62
     7
370
    25
100
AcDbCircle
 10
10.0466089076
 20
18.0395917002
 30
0.0
 40
6.086028220240665
100
AcDbArc
 50
9.8075021052
 51
86.1924978948
  0
ARC
  5
AF
330
1F
100
AcDbEntity
  8
0
  6
Continuous
 62
     7
370
    25
100
AcDbCircle
 10
3.3989975996
 20
25.7409235244
 30
0.0
 40
6.086028220240662
100
AcDbArc
 50
355.4075021052
 51
71.7924978948
  0
ARC
  5
B0
330
1F
100
AcDbEntity
  8
0
  6
Continuous
 62
     7
370
    25
100
AcDbCircle
 10
-1.1245234327
 20
34.8534975536
 30
0.0
 40
6.086028220240665
100
AcDbArc
 50
341.0075021052
 51
57.3924978948
  0
ARC
  5
B1
330
1F
100
AcDbEntity
  8
0
  6
Continuous
 62
     7
370
    25
100
AcDbCircle
 10
-3.2397247264
 20
44.8047372479
 30
0.0
 40
6.086028220240767
100
AcDbArc
 50
326.6075021052
 51
42.9924978948
  0
ARC
  5
B2
330
1F
100
AcDbEntity
  8
0
  6
Continuous
 62
     7
370
    25
100
AcDbCircle
 10
-2.8137004053
 20
54.9693696193
 30
0.0
 40
6.086028220240558
100
AcDbArc
 50
312.2075021053
 51
28.5924978948
  0
ARC
  5
B3
330
1F
100
AcDbEntity
  8
0
  6
Continuous
 62
     7
370
    25
100
AcDbCircle
 10
0.126780856
 20
64.7087134329
 30
0.0
 40
6.086028220240676
100
AcDbArc
 50
297.8075021052
 51
14.1924978948
  0
ARC
  5
B4
330
1F
100
AcDbEntity
  8
0
  6
Continuous
 62
     7
370
    25
100
AcDbCircle
 10
5.3969578053
 20
73.4108098981
 30
0.0
 40
6.086028220240684
100
AcDbArc
 50
283.4075021052
 51
359.7924978948
  0
ARC
  5
B5
330
1F
100
AcDbEntity
  8
0
  6
Continuous
 62
     7
370
    25
100
AcDbCircle
 10
12.6656858426
 20
80.52887429
 30
0.0
 40
6.086028220240559
100
AcDbArc
 50
269.0075021053
 51
345.3924978948
  0
ARC
  5
B6
330
1F
100
AcDbEntity
  8
0
  6
Continuous
 62
     7
370
    25
100
AcDbCircle
 10
21.4762440528
 20
85.6156524444
 30
0.0
 40
6.086028220240758
100
AcDbArc
 50
254.6075021052
 51
330.9924978948
  0
ARC
  5
B7
330
1F
100
AcDbEntity
  8
0
  6
Continuous
 62
     7
370
    25
100
AcDbCircle
 10
31.2750326606
 20
88.3515233819
 30
0.0
 40
6.086028220240558
100
AcDbArc
 50
240.2075021053
 51
316.5924978948
  0
ARC
  5
B8
330
1F
100
AcDbEntity
  8
0
  6
Continuous
 62
     7
370
    25
100
AcDbCircle
 10
41.4463577403
 20
88.5645822699
 30
0.0
 40
6.086028220240548
100
AcDbArc
 50
225.8075021053
 51
302.1924978948
  0
ARC
  5
B9
330
1F
100
AcDbEntity
  8
0
  6
Continuous
 62
     7
370
    25
100
AcDbCircle
 10
51.3511175297
 20
86.2414418346
 30
0.0
 40
6.086028220240663
100
AcDbArc
 50
211.4075021053
 51
287.7924978948
  0
ARC
  5
BA
330
1F
100
AcDbEntity
  8
0
  6
Continuous
 62
     7
370
    25
100
AcDbCircle
 10
60.366959544
 20
81.5280735337
 30
0.0
 40
6.086028220240666
100
AcDbArc
 50
197.0075021053
 51
273.3924978948
  0
ARC
  5
BB
330
1F
100
AcDbEntity
  8
0
  6
Continuous
 62
     7
370
    25
100
AcDbCircle
 10
67.9273852716
 20
74.720635632
 30
0.0
 40
6.086028220240678
100
AcDbArc
 50
182.6075021053
 51
258.9924978948
  0
ARC
  5
BC
330
1F
100
AcDbEntity
  8
0
  6
Continuous
 62
     7
370
    25
100
AcDbCircle
 10
73.5573453586
 20
66.2468644889
 30
0.0
 40
6.086028220240668
100
AcDbArc
 50
168.2075021052
 51
244.5924978948
  0
ARC
  5
BD
330
1F
100
AcDbEntity
  8
0
  6
Continuous
 62
     7
370
    25
100
AcDbCircle
 10
76.9030887073
 20
56.6391983096
 30
0.0
 40
6.086028220240745
100
AcDbArc
 50
153.8075021052
 51
230.1924978948
  0
ARC
  5
BE
330
1F
100
AcDbEntity
  8
0
  6
Continuous
 62
     7
370
    25
100
AcDbCircle
 10
77.7543899582
 20
46.5013220948
 30
0.0
 40
6.086028220240766
100
AcDbArc
 50
139.4075021052
 51
215.7924978948
  0
ARC
  5
BF
330
1F
100
AcDbEntity
  8
0
  6
Continuous
 62
     7
370
    25
100
AcDbCircle
 10
76.0577587229
 20
36.4702358915
 30
0.0
 40
6.08602822024077
100
AcDbArc
 50
125.0075021052
 51
201.3924978948
  0
ARC
  5
C0
330
1F
100
AcDbEntity
  8
0
  6
Continuous
 62
     7
370
    25
100
AcDbCircle
 10
71.9198005818
 20
27.1762297375
 30
0.0
 40
6.086028220240531
100
AcDbArc
 50
110.6075021053
 51
186.9924978948
  0
LINE
  5
C1
330
1F
100
AcDbEntity
  8
0
  6
Continuous
 62
     7
370
    25
100
AcDbLine
 10
40.2789625803
 20
49.8008885588
 30
0.0
 11
34.1289625803
 21
49.8008885588
 31
0.0
  0
LINE
  5
C2
330
1F
100
AcDbEntity
  8
0
  6
Continuous
 62
     7
370
    25
100
AcDbLine
 10
34.1289625803
 20
49.8008885588
 30
0.0
 11
34.1289625803
 21
46.6008885588
 31
0.0
  0
LINE
  5
C3
330
1F
100
AcDbEntity
  8
0
  6
Continuous
 62
     7
370
    25
100
AcDbLine
 10
40.2789625803
 20
46.6008885588
 30
0.0
 11
40.2789625803
 21
49.8008885588
 31
0.0
  0
ARC
  5
C4
330
1F
100
AcDbEntity
  8
0
  6
Continuous
 62
     7
370
    25
100
AcDbCircle
 10
37.2039625803
 20
48.2008885588
 30
0.0
 40
36.0
100
AcDbArc
 50
90.0
 51
92.4
  0
ARC
  5
C5
330
1F
100
AcDbEntity
  8
0
  6
Continuous
 62
     7
370
    25
100
AcDbCircle
 10
37.2039625803
 20
48.2008885588
 30
0.0
 40
36.00000000000001
100
AcDbArc
 50
104.4
 51
106.8
  0
ARC
  5
C6
330
1F
100
AcDbEntity
  8
0
  6
Continuous
 62
     7
370
    25
100
AcDbCircle
 10
37.2039625803
 20
48.2008885588
 30
0.0
 40
36.00000000000001
100
AcDbArc
 50
75.6
 51
78.0
  0
ARC
  5
C7
330
1F
100
AcDbEntity
  8
0
  6
Continuous
 62
     7
370
    25
100
AcDbCircle
 10
37.2039625803
 20
48.2008885588
 30
0.0
 40
36.00000000000001
100
AcDbArc
 50
61.2
 51
63.6
  0
ARC
  5
C8
330
1F
100
AcDbEntity
  8
0
  6
Continuous
 62
     7
370
    25
100
AcDbCircle
 10
37.2039625803
 20
48.2008885588
 30
0.0
 40
36.00000000000001
100
AcDbArc
 50
46.8
 51
49.2
  0
ARC
  5
C9
330
1F
100
AcDbEntity
  8
0
  6
Continuous
 62
     7
370
    25
100
AcDbCircle
 10
37.2039625803
 20
48.2008885588
 30
0.0
 40
36.00000000000001
100
AcDbArc
 50
32.4
 51
34.8
  0
ARC
  5
CA
330
1F
100
AcDbEntity
  8
0
  6
Continuous
 62
     7
370
    25
100
AcDbCircle
 10
37.2039625803
 20
48.2008885588
 30
0.0
 40
36.00000000000002
100
AcDbArc
 50
18.0
 51
20.4
  0
ARC
  5
CB
330
1F
100
AcDbEntity
  8
0
  6
Continuous
 62
     7
370
    25
100
AcDbCircle
 10
37.2039625803
 20
48.2008885588
 30
0.0
 40
36.00000000000001
100
AcDbArc
 50
3.6
 51
6.0
  0
ARC
  5
CC
330
1F
100
AcDbEntity
  8
0
  6
Continuous
 62
     7
370
    25
100
AcDbCircle
 10
37.2039625803
 20
48.2008885588
 30
0.0
 40
36.00000000000002
100
AcDbArc
 50
349.2
 51
351.6
  0
ARC
  5
CD
330
1F
100
AcDbEntity
  8
0
  6
Continuous
 62
     7
370
    25
100
AcDbCircle
 10
37.2039625803
 20
48.2008885588
 30
0.0
 40
36.00000000000001
100
AcDbArc
 50
118.8
 51
121.2
  0
ARC
  5
CE
330
1F
100
AcDbEntity
  8
0
  6
Continuous
 62
     7
370
    25
100
AcDbCircle
 10
37.2039625803
 20
48.2008885588
 30
0.0
 40
36.00000000000002
100
AcDbArc
 50
133.2
 51
135.6
  0
ARC
  5
CF
330
1F
100
AcDbEntity
  8
0
  6
Continuous
 62
     7
370
    25
100
AcDbCircle
 10
37.2039625803
 20
48.2008885588
 30
0.0
 40
36.00000000000002
100
AcDbArc
 50
147.6
 51
150.0
  0
ARC
  5
D0
330
1F
100
AcDbEntity
  8
0
  6
Continuous
 62
     7
370
    25
100
AcDbCircle
 10
37.2039625803
 20
48.2008885588
 30
0.0
 40
36.00000000000001
100
AcDbArc
 50
162.0
 51
164.4
  0
ARC
  5
D1
330
1F
100
AcDbEntity
  8
0
  6
Continuous
 62
     7
370
    25
100
AcDbCircle
 10
37.2039625803
 20
48.2008885588
 30
0.0
 40
36.00000000000001
100
AcDbArc
 50
176.4
 51
178.8
  0
ARC
  5
D2
330
1F
100
AcDbEntity
  8
0
  6
Continuous
 62
     7
370
    25
100
AcDbCircle
 10
37.2039625803
 20
48.2008885588
 30
0.0
 40
36.00000000000001
100
AcDbArc
 50
190.8
 51
193.2
  0
ARC
  5
D3
330
1F
100
AcDbEntity
  8
0
  6
Continuous
 62
     7
370
    25
100
AcDbCircle
 10
37.2039625803
 20
48.2008885588
 30
0.0
 40
36.00000000000001
100
AcDbArc
 50
205.2
 51
207.6
  0
ARC
  5
D4
330
1F
100
AcDbEntity
  8
0
  6
Continuous
 62
     7
370
    25
100
AcDbCircle
 10
37.2039625803
 20
48.2008885588
 30
0.0
 40
36.00000000000001
100
AcDbArc
 50
219.6
 51
222.0
  0
ARC
  5
D5
330
1F
100
AcDbEntity
  8
0
  6
Continuous
 62
     7
370
    25
100
AcDbCircle
 10
37.2039625803
 20
48.2008885588
 30
0.0
 40
36.00000000000001
100
AcDbArc
 50
234.0
 51
236.4
  0
ARC
  5
D6
330
1F
100
AcDbEntity
  8
0
  6
Continuous
 62
     7
370
    25
100
AcDbCircle
 10
37.2039625803
 20
48.2008885588
 30
0.0
 40
36.00000000000001
100
AcDbArc
 50
248.4
 51
250.8
  0
ARC
  5
D7
330
1F
100
AcDbEntity
  8
0
  6
Continuous
 62
     7
370
    25
100
AcDbCircle
 10
37.2039625803
 20
48.2008885588
 30
0.0
 40
36.00000000000002
100
AcDbArc
 50
262.8
 51
265.2
  0
ARC
  5
D8
330
1F
100
AcDbEntity
  8
0
  6
Continuous
 62
     7
370
    25
100
AcDbCircle
 10
37.2039625803
 20
48.2008885588
 30
0.0
 40
36.00000000000001
100
AcDbArc
 50
277.2
 51
279.6
  0
ARC
  5
D9
330
1F
100
AcDbEntity
  8
0
  6
Continuous
 62
     7
370
    25
100
AcDbCircle
 10
37.2039625803
 20
48.2008885588
 30
0.0
 40
36.00000000000001
100
AcDbArc
 50
291.6
 51
294.0
  0
ARC
  5
DA
330
1F
100
AcDbEntity
  8
0
  6
Continuous
 62
     7
370
    25
100
AcDbCircle
 10
37.2039625803
 20
48.2008885588
 30
0.0
 40
36.00000000000001
100
AcDbArc
 50
306.0
 51
308.4
  0
ARC
  5
DB
330
1F
100
AcDbEntity
  8
0
  6
Continuous
 62
     7
370
    25
100
AcDbCircle
 10
37.2039625803
 20
48.2008885588
 30
0.0
 40
36.00000000000002
100
AcDbArc
 50
320.4
 51
322.8
  0
ARC
  5
DC
330
1F
100
AcDbEntity
  8
0
  6
Continuous
 62
     7
370
    25
100
AcDbCircle
 10
37.2039625803
 20
48.2008885588
 30
0.0
 40
36.00000000000002
100
AcDbArc
 50
334.8
 51
337.2
  0
LINE
  5
DD
330
1F
100
AcDbEntity
  8
0
  6
Continuous
 62
     7
370
    25
100
AcDbLine
 10
34.1289625803
 20
46.6008885588
 30
0.0
 11
40.2789625803
 21
46.6008885588
 31
0.0
  0
ARC
  5
DE
330
1F
100
AcDbEntity
  8
0
  6
Continuous
 62
     7
370
    25
100
AcDbCircle
 10
142.0871965583
 20
94.0442348001
 30
0.0
 40
6.08602822024067
100
AcDbArc
 50
96.2075021052
 51
172.5924978948
  0
ARC
  5
DF
330
1F
100
AcDbEntity
  8
0
  6
Continuous
 62
     7
370
    25
100
AcDbCircle
 10
133.9836545856
 20
87.8933116608
 30
0.0
 40
6.086028220240641
100
AcDbArc
 50
81.8075021052
 51
158.1924978948
  0
ARC
  5
E0
330
1F
100
AcDbEntity
  8
0
  6
Continuous
 62
     7
370
    25
100
AcDbCircle
 10
124.605027904
 20
83.9509000215
 30
0.0
 40
6.086028220240762
100
AcDbArc
 50
67.4075021052
 51
143.7924978948
  0
ARC
  5
E1
330
1F
100
AcDbEntity
  8
0
  6
Continuous
 62
     7
370
    25
100
AcDbCircle
 10
114.5406101199
 20
82.4647161047
 30
0.0
 40
6.086028220240748
100
AcDbArc
 50
53.0075021052
 51
129.3924978948
  0
ARC
  5
E2
330
1F
100
AcDbEntity
  8
0
  6
Continuous
 62
     7
370
    25
100
AcDbCircle
 10
104.4227856171
 20
83.5281423116
 30
0.0
 40
6.086028220240666
100
AcDbArc
 50
38.6075021052
 51
114.9924978948
  0
ARC
  5
E3
330
1F
100
AcDbEntity
  8
0
  6
Continuous
 62
     7
370
    25
100
AcDbCircle
 10
94.8872945198
 20
87.0743596627
 30
0.0
 40
6.086028220240766
100
AcDbArc
 50
24.2075021052
 51
100.5924978948
  0
ARC
  5
E4
330
1F
100
AcDbEntity
  8
0
  6
Continuous
 62
     7
370
    25
100
AcDbCircle
 10
86.5332868028
 20
92.8805462797
 30
0.0
 40
6.086028220240667
100
AcDbArc
 50
9.8075021052
 51
86.1924978948
  0
ARC
  5
E5
330
1F
100
AcDbEntity
  8
0
  6
Continuous
 62
     7
370
    25
100
AcDbCircle
 10
79.8856754948
 20
100.5818781038
 30
0.0
 40
6.086028220240654
100
AcDbArc
 50
355.4075021052
 51
71.7924978948
  0
ARC
  5
E6
330
1F
100
AcDbEntity
  8
0
  6
Continuous
 62
     7
370
    25
100
AcDbCircle
 10
75.3621544625
 20
109.694452133
 30
0.0
 40
6.086028220240658
100
AcDbArc
 50
341.0075021052
 51
57.3924978948
  0
ARC
  5
E7
330
1F
100
AcDbEntity
  8
0
  6
Continuous
 62
     7
370
    25
100
AcDbCircle
 10
73.2469531687
 20
119.6456918273
 30
0.0
 40
6.086028220240762
100
AcDbArc
 50
326.6075021052
 51
42.9924978948
  0
ARC
  5
E8
330
1F
100
AcDbEntity
  8
0
  6
Continuous
 62
     7
370
    25
100
AcDbCircle
 10
73.6729774899
 20
129.8103241987
 30
0.0
 40
6.086028220240538
100
AcDbArc
 50
312.2075021053
 51
28.5924978948
  0
ARC
  5
E9
330
1F
100
AcDbEntity
  8
0
  6
Continuous
 62
     7
370
    25
100
AcDbCircle
 10
81.8836357005
 20
148.2517644776
 30
0.0
 40
6.086028220240657
100
AcDbArc
 50
283.4075021052
 51
359.7924978948
  0
ARC
  5
EA
330
1F
100
AcDbEntity
  8
0
  6
Continuous
 62
     7
370
    25
100
AcDbCircle
 10
89.1523637378
 20
155.3698288694
 30
0.0
 40
6.086028220240531
100
AcDbArc
 50
269.0075021053
 51
345.3924978948
  0
ARC
  5
EB
330
1F
100
AcDbEntity
  8
0
  6
Continuous
 62
     7
370
    25
100
AcDbCircle
 10
97.962921948
 20
160.4566070238
 30
0.0
 40
6.086028220240741
100
AcDbArc
 50
254.6075021052
 51
330.9924978948
  0
ARC
  5
EC
330
1F
100
AcDbEntity
  8
0
  6
Continuous
 62
     7
370
    25
100
AcDbCircle
 10
107.7617105558
 20
163.1924779614
 30
0.0
 40
6.086028220240554
100
AcDbArc
 50
240.2075021053
 51
316.5924978948
  0
ARC
  5
ED
330
1F
100
AcDbEntity
  8
0
  6
Continuous
 62
     7
370
    25
100
AcDbCircle
 10
117.9330356355
 20
163.4055368493
 30
0.0
 40
6.086028220240548
100
AcDbArc
 50
225.8075021053
 51
302.1924978948
  0
ARC
  5
EE
330
1F
100
AcDbEntity
  8
0
  6
Continuous
 62
     7
370
    25
100
AcDbCircle
 10
127.8377954249
 20
161.0823964141
 30
0.0
 40
6.086028220240656
100
AcDbArc
 50
211.4075021053
 51
287.7924978948
  0
ARC
  5
EF
330
1F
100
AcDbEntity
  8
0
  6
Continuous
 62
     7
370
    25
100
AcDbCircle
 10
136.8536374392
 20
156.3690281132
 30
0.0
 40
6.086028220240663
100
AcDbArc
 50
197.0075021053
 51
273.3924978948
  0
ARC
  5
F0
330
1F
100
AcDbEntity
  8
0
  6
Continuous
 62
     7
370
    25
100
AcDbCircle
 10
144.4140631668
 20
149.5615902115
 30
0.0
 40
6.08602822024067
100
AcDbArc
 50
182.6075021053
 51
258.9924978948
  0
ARC
  5
F1
330
1F
100
AcDbEntity
  8
0
  6
Continuous
 62
     7
370
    25
100
AcDbCircle
 10
150.0440232538
 20
141.0878190684
 30
0.0
 40
6.08602822024068
100
AcDbArc
 50
168.2075021052
 51
244.5924978948
  0
ARC
  5
F2
330
1F
100
AcDbEntity
  8
0
  6
Continuous
 62
     7
370
    25
100
AcDbCircle
 10
153.3897666025
 20
131.4801528891
 30
0.0
 40
6.08602822024077
100
AcDbArc
 50
153.8075021052
 51
230.1924978948
  0
ARC
  5
F3
330
1F
100
AcDbEntity
  8
0
  6
Continuous
 62
     7
370
    25
100
AcDbCircle
 10
154.2410678534
 20
121.3422766742
 30
0.0
 40
6.08602822024078
100
AcDbArc
 50
139.4075021052
 51
215.7924978948
  0
ARC
  5
F4
330
1F
100
AcDbEntity
  8
0
  6
Continuous
 62
     7
370
    25
100
AcDbCircle
 10
152.5444366181
 20
111.3111904709
 30
0.0
 40
6.086028220240778
100
AcDbArc
 50
125.0075021052
 51
201.3924978948
  0
ARC
  5
F5
330
1F
100
AcDbEntity
  8
0
  6
Continuous
 62
     7
370
    25
100
AcDbCircle
 10
148.406478477
 20
102.017184317
 30
0.0
 40
6.086028220240558
100
AcDbArc
 50
110.6075021053
 51
186.9924978948
  0
LINE
  5
F6
330
1F
100
AcDbEntity
  8
0
  6
Continuous
 62
     7
370
    25
100
AcDbLine
 10
116.7656404755
 20
124.6418431382
 30
0.0
 11
110.6156404755
 21
124.6418431382
 31
0.0
  0
LINE
  5
F7
330
1F
100
AcDbEntity
  8
0
  6
Continuous
 62
     7
370
    25
100
AcDbLine
 10
110.6156404755
 20
124.6418431382
 30
0.0
 11
110.6156404755
 21
121.4418431382
 31
0.0
  0
LINE
  5
F8
330
1F
100
AcDbEntity
  8
0
  6
Continuous
 62
     7
370
    25
100
AcDbLine
 10
116.7656404755
 20
121.4418431382
 30
0.0
 11
116.7656404755
 21
124.6418431382
 31
0.0
  0
ARC
  5
F9
330
1F
100
AcDbEntity
  8
0
  6
Continuous
 62
     7
370
    25
100
AcDbCircle
 10
76.6134587512
 20
139.5496680123
 30
0.0
 40
6.086028220240685
100
AcDbArc
 50
297.8075021052
 51
14.1924978948
  0
ARC
  5
FA
330
1F
100
AcDbEntity
  8
0
  6
Continuous
 62
     7
370
    25
100
AcDbCircle
 10
113.6906404755
 20
123.0418431382
 30
0.0
 40
36.00000000000001
100
AcDbArc
 50
90.0
 51
92.4
  0
ARC
  5
FB
330
1F
100
AcDbEntity
  8
0
  6
Continuous
 62
     7
370
    25
100
AcDbCircle
 10
113.6906404755
 20
123.0418431382
 30
0.0
 40
36.00000000000001
100
AcDbArc
 50
104.4
 51
106.8
  0
ARC
  5
FC
330
1F
100
AcDbEntity
  8
0
  6
Continuous
 62
     7
370
    25
100
AcDbCircle
 10
113.6906404755
 20
123.0418431382
 30
0.0
 40
36.00000000000002
100
AcDbArc
 50
75.6
 51
78.0
  0
ARC
  5
FD
330
1F
100
AcDbEntity
  8
0
  6
Continuous
 62
     7
370
    25
100
AcDbCircle
 10
113.6906404755
 20
123.0418431382
 30
0.0
 40
36.00000000000003
100
AcDbArc
 50
61.2
 51
63.6
  0
ARC
  5
FE
330
1F
100
AcDbEntity
  8
0
  6
Continuous
 62
     7
370
    25
100
AcDbCircle
 10
113.6906404755
 20
123.0418431382
 30
0.0
 40
36.00000000000002
100
AcDbArc
 50
46.8
 51
49.2
  0
ARC
  5
FF
330
1F
100
AcDbEntity
  8
0
  6
Continuous
 62
     7
370
    25
100
AcDbCircle
 10
113.6906404755
 20
123.0418431382
 30
0.0
 40
36.00000000000003
100
AcDbArc
 50
32.4
 51
34.8
  0
ARC
  5
100
330
1F
100
AcDbEntity
  8
0
  6
Continuous
 62
     7
370
    25
100
AcDbCircle
 10
113.6906404755
 20
123.0418431382
 30
0.0
 40
36.00000000000001
100
AcDbArc
 50
18.0
 51
20.4
  0
ARC
  5
101
330
1F
100
AcDbEntity
  8
0
  6
Continuous
 62
     7
370
    25
100
AcDbCircle
 10
113.6906404755
 20
123.0418431382
 30
0.0
 40
36.00000000000001
100
AcDbArc
 50
3.6
 51
6.0
  0
ARC
  5
102
330
1F
100
AcDbEntity
  8
0
  6
Continuous
 62
     7
370
    25
100
AcDbCircle
 10
113.6906404755
 20
123.0418431382
 30
0.0
 40
36.00000000000004
100
AcDbArc
 50
349.2
 51
351.6
  0
ARC
  5
103
330
1F
100
AcDbEntity
  8
0
  6
Continuous
 62
     7
370
    25
100
AcDbCircle
 10
113.6906404755
 20
123.0418431382
 30
0.0
 40
36.00000000000003
100
AcDbArc
 50
118.8
 51
121.2
  0
ARC
  5
104
330
1F
100
AcDbEntity
  8
0
  6
Continuous
 62
     7
370
    25
100
AcDbCircle
 10
113.6906404755
 20
123.0418431382
 30
0.0
 40
36.00000000000001
100
AcDbArc
 50
133.2
 51
135.6
  0
ARC
  5
105
330
1F
100
AcDbEntity
  8
0
  6
Continuous
 62
     7
370
    25
100
AcDbCircle
 10
113.6906404755
 20
123.0418431382
 30
0.0
 40
36.00000000000001
100
AcDbArc
 50
147.6
 51
150.0
  0
ARC
  5
106
330
1F
100
AcDbEntity
  8
0
  6
Continuous
 62
     7
370
    25
100
AcDbCircle
 10
113.6906404755
 20
123.0418431382
 30
0.0
 40
36.0
100
AcDbArc
 50
162.0
 51
164.4
  0
ARC
  5
107
330
1F
100
AcDbEntity
  8
0
  6
Continuous
 62
     7
370
    25
100
AcDbCircle
 10
113.6906404755
 20
123.0418431382
 30
0.0
 40
36.00000000000002
100
AcDbArc
 50
176.4
 51
178.8
  0
ARC
  5
108
330
1F
100
AcDbEntity
  8
0
  6
Continuous
 62
     7
370
    25
100
AcDbCircle
 10
113.6906404755
 20
123.0418431382
 30
0.0
 40
36.00000000000001
100
AcDbArc
 50
190.8
 51
193.2
  0
ARC
  5
109
330
1F
100
AcDbEntity
  8
0
  6
Continuous
 62
     7
370
    25
100
AcDbCircle
 10
113.6906404755
 20
123.0418431382
 30
0.0
 40
36.00000000000001
100
AcDbArc
 50
205.2
 51
207.6
  0
ARC
  5
10A
330
1F
100
AcDbEntity
  8
0
  6
Continuous
 62
     7
370
    25
100
AcDbCircle
 10
113.6906404755
 20
123.0418431382
 30
0.0
 40
36.00000000000001
100
AcDbArc
 50
219.6
 51
222.0
  0
ARC
  5
10B
330
1F
100
AcDbEntity
  8
0
  6
Continuous
 62
     7
370
    25
100
AcDbCircle
 10
113.6906404755
 20
123.0418431382
 30
0.0
 40
36.00000000000002
100
AcDbArc
 50
234.0
 51
236.4
  0
ARC
  5
10C
330
1F
100
AcDbEntity
  8
0
  6
Continuous
 62
     7
370
    25
100
AcDbCircle
 10
113.6906404755
 20
123.0418431382
 30
0.0
 40
36.00000000000001
100
AcDbArc
 50
248.4
 51
250.8
  0
ARC
  5
10D
330
1F
100
AcDbEntity
  8
0
  6
Continuous
 62
     7
370
    25
100
AcDbCircle
 10
113.6906404755
 20
123.0418431382
 30
0.0
 40
36.00000000000001
100
AcDbArc
 50
262.8
 51
265.2
  0
ARC
  5
10E
330
1F
100
AcDbEntity
  8
0
  6
Continuous
 62
     7
370
    25
100
AcDbCircle
 10
113.6906404755
 20
123.0418431382
 30
0.0
 40
36.00000000000001
100
AcDbArc
 50
277.2
 51
279.6
  0
ARC
  5
10F
330
1F
100
AcDbEntity
  8
0
  6
Continuous
 62
     7
370
    25
100
AcDbCircle
 10
113.6906404755
 20
123.0418431382
 30
0.0
 40
36.00000000000001
100
AcDbArc
 50
291.6
 51
294.0
  0
ARC
  5
110
330
1F
100
AcDbEntity
  8
0
  6
Continuous
 62
     7
370
    25
100
AcDbCircle
 10
113.6906404755
 20
123.0418431382
 30
0.0
 40
36.00000000000003
100
AcDbArc
 50
306.0
 51
308.4
  0
ARC
  5
111
330
1F
100
AcDbEntity
  8
0
  6
Continuous
 62
     7
370
    25
100
AcDbCircle
 10
113.6906404755
 20
123.0418431382
 30
0.0
 40
36.0
100
AcDbArc
 50
320.4
 51
322.8
  0
ARC
  5
112
330
1F
100
AcDbEntity
  8
0
  6
Continuous
 62
     7
370
    25
100
AcDbCircle
 10
113.6906404755
 20
123.0418431382
 30
0.0
 40
36.00000000000001
100
AcDbArc
 50
334.8
 51
337.2
  0
LINE
  5
113
330
1F
100
AcDbEntity
  8
0
  6
Continuous
 62
     7
370
    25
100
AcDbLine
 10
110.6156404755
 20
121.4418431382
 30
0.0
 11
116.7656404755
 21
121.4418431382
 31
0.0
  0
ARC
  5
114
330
1F
100
AcDbEntity
  8
0
  6
Continuous
 62
     7
370
    25
100
AcDbCircle
 10
139.1939564656
 20
19.5585683724
 30
0.0
 40
6.08602822024067
100
AcDbArc
 50
96.2075021052
 51
172.5924978948
  0
ARC
  5
115
330
1F
100
AcDbEntity
  8
0
  6
Continuous
 62
     7
370
    25
100
AcDbCircle
 10
131.090414493
 20
13.4076452331
 30
0.0
 40
6.086028220240654
100
AcDbArc
 50
81.8075021052
 51
158.1924978948
  0
ARC
  5
116
330
1F
100
AcDbEntity
  8
0
  6
Continuous
 62
     7
370
    25
100
AcDbCircle
 10
121.7117878114
 20
9.4652335939
 30
0.0
 40
6.086028220240766
100
AcDbArc
 50
67.4075021052
 51
143.7924978948
  0
ARC
  5
117
330
1F
100
AcDbEntity
  8
0
  6
Continuous
 62
     7
370
    25
100
AcDbCircle
 10
111.6473700273
 20
7.979049677
 30
0.0
 40
6.086028220240756
100
AcDbArc
 50
53.0075021052
 51
129.3924978948
  0
ARC
  5
118
330
1F
100
AcDbEntity
  8
0
  6
Continuous
 62
     7
370
    25
100
AcDbCircle
 10
91.9940544272
 20
12.588693235
 30
0.0
 40
6.086028220240765
100
AcDbArc
 50
24.2075021052
 51
100.5924978948
  0
ARC
  5
119
330
1F
100
AcDbEntity
  8
0
  6
Continuous
 62
     7
370
    25
100
AcDbCircle
 10
83.6400467102
 20
18.394879852
 30
0.0
 40
6.086028220240664
100
AcDbArc
 50
9.8075021052
 51
86.1924978948
  0
ARC
  5
11A
330
1F
100
AcDbEntity
  8
0
  6
Continuous
 62
     7
370
    25
100
AcDbCircle
 10
76.9924354022
 20
26.0962116762
 30
0.0
 40
6.086028220240655
100
AcDbArc
 50
355.4075021052
 51
71.7924978948
  0
ARC
  5
11B
330
1F
100
AcDbEntity
  8
0
  6
Continuous
 62
     7
370
    25
100
AcDbCircle
 10
72.4689143699
 20
35.2087857054
 30
0.0
 40
6.086028220240672
100
AcDbArc
 50
341.0075021052
 51
57.3924978948
  0
ARC
  5
11C
330
1F
100
AcDbEntity
  8
0
  6
Continuous
 62
     7
370
    25
100
AcDbCircle
 10
70.3537130761
 20
45.1600253997
 30
0.0
 40
6.086028220240751
100
AcDbArc
 50
326.6075021052
 51
42.9924978948
  0
ARC
  5
11D
330
1F
100
AcDbEntity
  8
0
  6
Continuous
 62
     7
370
    25
100
AcDbCircle
 10
70.7797373973
 20
55.3246577711
 30
0.0
 40
6.086028220240562
100
AcDbArc
 50
312.2075021053
 51
28.5924978948
  0
ARC
  5
11E
330
1F
100
AcDbEntity
  8
0
  6
Continuous
 62
     7
370
    25
100
AcDbCircle
 10
78.9903956079
 20
73.7660980499
 30
0.0
 40
6.086028220240695
100
AcDbArc
 50
283.4075021052
 51
359.7924978948
  0
ARC
  5
11F
330
1F
100
AcDbEntity
  8
0
  6
Continuous
 62
     7
370
    25
100
AcDbCircle
 10
86.2591236452
 20
80.8841624418
 30
0.0
 40
6.086028220240549
100
AcDbArc
 50
269.0075021053
 51
345.3924978948
  0
ARC
  5
120
330
1F
100
AcDbEntity
  8
0
  6
Continuous
 62
     7
370
    25
100
AcDbCircle
 10
95.0696818554
 20
85.9709405962
 30
0.0
 40
6.086028220240759
100
AcDbArc
 50
254.6075021052
 51
330.9924978948
  0
ARC
  5
121
330
1F
100
AcDbEntity
  8
0
  6
Continuous
 62
     7
370
    25
100
AcDbCircle
 10
104.8684704632
 20
88.7068115337
 30
0.0
 40
6.086028220240554
100
AcDbArc
 50
240.2075021053
 51
316.5924978948
  0
ARC
  5
122
330
1F
100
AcDbEntity
  8
0
  6
Continuous
 62
     7
370
    25
100
AcDbCircle
 10
115.0397955429
 20
88.9198704216
 30
0.0
 40
6.086028220240548
100
AcDbArc
 50
225.8075021053
 51
302.1924978948
  0
ARC
  5
123
330
1F
100
AcDbEntity
  8
0
  6
Continuous
 62
     7
370
    25
100
AcDbCircle
 10
124.9445553323
 20
86.5967299864
 30
0.0
 40
6.086028220240664
100
AcDbArc
 50
211.4075021053
 51
287.7924978948
  0
ARC
  5
124
330
1F
100
AcDbEntity
  8
0
  6
Continuous
 62
     7
370
    25
100
AcDbCircle
 10
133.9603973466
 20
81.8833616855
 30
0.0
 40
6.086028220240666
100
AcDbArc
 50
197.0075021053
 51
273.3924978948
  0
ARC
  5
125
330
1F
100
AcDbEntity
  8
0
  6
Continuous
 62
     7
370
    25
100
AcDbCircle
 10
141.5208230742
 20
75.0759237838
 30
0.0
 40
6.086028220240672
100
AcDbArc
 50
182.6075021053
 51
258.9924978948
  0
ARC
  5
126
330
1F
100
AcDbEntity
  8
0
  6
Continuous
 62
     7
370
    25
100
AcDbCircle
 10
150.4965265098
 20
56.9944864614
 30
0.0
 40
6.08602822024077
100
AcDbArc
 50
153.8075021052
 51
230.1924978948
  0
ARC
  5
127
330
1F
100
AcDbEntity
  8
0
  6
Continuous
 62
     7
370
    25
100
AcDbCircle
 10
151.3478277608
 20
46.8566102466
 30
0.0
 40
6.086028220240761
100
AcDbArc
 50
139.4075021052
 51
215.7924978948
  0
ARC
  5
128
330
1F
100
AcDbEntity
  8
0
  6
Continuous
 62
     7
370
    25
100
AcDbCircle
 10
149.6511965255
 20
36.8255240433
 30
0.0
 40
6.086028220240762
100
AcDbArc
 50
125.0075021052
 51
201.3924978948
  0
ARC
  5
129
330
1F
100
AcDbEntity
  8
0
  6
Continuous
 62
     7
370
    25
100
AcDbCircle
 10
145.5132383844
 20
27.5315178893
 30
0.0
 40
6.086028220240531
100
AcDbArc
 50
110.6075021053
 51
186.9924978948
  0
LINE
  5
12A
330
1F
100
AcDbEntity
  8
0
  6
Continuous
 62
     7
370
    25
100
AcDbLine
 10
113.8724003829
 20
50.1561767106
 30
0.0
 11
107.7224003829
 21
50.1561767106
 31
0.0
  0
LINE
  5
12B
330
1F
100
AcDbEntity
  8
0
  6
Continuous
 62
     7
370
    25
100
AcDbLine
 10
107.7224003829
 20
50.1561767106
 30
0.0
 11
107.7224003829
 21
46.9561767106
 31
0.0
  0
LINE
  5
12C
330
1F
100
AcDbEntity
  8
0
  6
Continuous
 62
     7
370
    25
100
AcDbLine
 10
113.8724003829
 20
46.9561767106
 30
0.0
 11
113.8724003829
 21
50.1561767106
 31
0.0
  0
ARC
  5
12D
330
1F
100
AcDbEntity
  8
0
  6
Continuous
 62
     7
370
    25
100
AcDbCircle
 10
101.5295455245
 20
9.0424758839
 30
0.0
 40
6.086028220240673
100
AcDbArc
 50
38.6075021052
 51
114.9924978948
  0
ARC
  5
12E
330
1F
100
AcDbEntity
  8
0
  6
Continuous
 62
     7
370
    25
100
AcDbCircle
 10
110.7974003829
 20
48.5561767106
 30
0.0
 40
36.0
100
AcDbArc
 50
90.0
 51
92.4
  0
ARC
  5
12F
330
1F
100
AcDbEntity
  8
0
  6
Continuous
 62
     7
370
    25
100
AcDbCircle
 10
110.7974003829
 20
48.5561767106
 30
0.0
 40
36.00000000000001
100
AcDbArc
 50
104.4
 51
106.8
  0
ARC
  5
130
330
1F
100
AcDbEntity
  8
0
  6
Continuous
 62
     7
370
    25
100
AcDbCircle
 10
110.7974003829
 20
48.5561767106
 30
0.0
 40
36.00000000000002
100
AcDbArc
 50
75.6
 51
78.0
  0
ARC
  5
131
330
1F
100
AcDbEntity
  8
0
  6
Continuous
 62
     7
370
    25
100
AcDbCircle
 10
110.7974003829
 20
48.5561767106
 30
0.0
 40
36.00000000000001
100
AcDbArc
 50
61.2
 51
63.6
  0
ARC
  5
132
330
1F
100
AcDbEntity
  8
0
  6
Continuous
 62
     7
370
    25
100
AcDbCircle
 10
110.7974003829
 20
48.5561767106
 30
0.0
 40
36.00000000000001
100
AcDbArc
 50
46.8
 51
49.2
  0
ARC
  5
133
330
1F
100
AcDbEntity
  8
0
  6
Continuous
 62
     7
370
    25
100
AcDbCircle
 10
110.7974003829
 20
48.5561767106
 30
0.0
 40
36.00000000000002
100
AcDbArc
 50
32.4
 51
34.8
  0
ARC
  5
134
330
1F
100
AcDbEntity
  8
0
  6
Continuous
 62
     7
370
    25
100
AcDbCircle
 10
147.1507831612
 20
66.6021526407
 30
0.0
 40
6.08602822024068
100
AcDbArc
 50
168.2075021052
 51
244.5924978948
  0
ARC
  5
135
330
1F
100
AcDbEntity
  8
0
  6
Continuous
 62
     7
370
    25
100
AcDbCircle
 10
110.7974003829
 20
48.5561767106
 30
0.0
 40
36.00000000000001
100
AcDbArc
 50
3.6
 51
6.0
  0
ARC
  5
136
330
1F
100
AcDbEntity
  8
0
  6
Continuous
 62
     7
370
    25
100
AcDbCircle
 10
110.7974003829
 20
48.5561767106
 30
0.0
 40
36.00000000000003
100
AcDbArc
 50
349.2
 51
351.6
  0
ARC
  5
137
330
1F
100
AcDbEntity
  8
0
  6
Continuous
 62
     7
370
    25
100
AcDbCircle
 10
110.7974003829
 20
48.5561767106
 30
0.0
 40
36.00000000000001
100
AcDbArc
 50
118.8
 51
121.2
  0
ARC
  5
138
330
1F
100
AcDbEntity
  8
0
  6
Continuous
 62
     7
370
    25
100
AcDbCircle
 10
110.7974003829
 20
48.5561767106
 30
0.0
 40
36.00000000000001
100
AcDbArc
 50
133.2
 51
135.6
  0
ARC
  5
139
330
1F
100
AcDbEntity
  8
0
  6
Continuous
 62
     7
370
    25
100
AcDbCircle
 10
110.7974003829
 20
48.5561767106
 30
0.0
 40
36.0
100
AcDbArc
 50
147.6
 51
150.0
  0
ARC
  5
13A
330
1F
100
AcDbEntity
  8
0
  6
Continuous
 62
     7
370
    25
100
AcDbCircle
 10
110.7974003829
 20
48.5561767106
 30
0.0
 40
36.00000000000001
100
AcDbArc
 50
162.0
 51
164.4
  0
ARC
  5
13B
330
1F
100
AcDbEntity
  8
0
  6
Continuous
 62
     7
370
    25
100
AcDbCircle
 10
110.7974003829
 20
48.5561767106
 30
0.0
 40
36.00000000000002
100
AcDbArc
 50
18.0
 51
20.4
  0
ARC
  5
13C
330
1F
100
AcDbEntity
  8
0
  6
Continuous
 62
     7
370
    25
100
AcDbCircle
 10
110.7974003829
 20
48.5561767106
 30
0.0
 40
36.00000000000001
100
AcDbArc
 50
190.8
 51
193.2
  0
ARC
  5
13D
330
1F
100
AcDbEntity
  8
0
  6
Continuous
 62
     7
370
    25
100
AcDbCircle
 10
110.7974003829
 20
48.5561767106
 30
0.0
 40
36.0
100
AcDbArc
 50
205.2
 51
207.6
  0
ARC
  5
13E
330
1F
100
AcDbEntity
  8
0
  6
Continuous
 62
     7
370
    25
100
AcDbCircle
 10
110.7974003829
 20
48.5561767106
 30
0.0
 40
36.00000000000001
100
AcDbArc
 50
219.6
 51
222.0
  0
ARC
  5
13F
330
1F
100
AcDbEntity
  8
0
  6
Continuous
 62
     7
370
    25
100
AcDbCircle
 10
110.7974003829
 20
48.5561767106
 30
0.0
 40
36.00000000000001
100
AcDbArc
 50
234.0
 51
236.4
  0
ARC
  5
140
330
1F
100
AcDbEntity
  8
0
  6
Continuous
 62
     7
370
    25
100
AcDbCircle
 10
110.7974003829
 20
48.5561767106
 30
0.0
 40
36.00000000000001
100
AcDbArc
 50
248.4
 51
250.8
  0
ARC
  5
141
330
1F
100
AcDbEntity
  8
0
  6
Continuous
 62
     7
370
    25
100
AcDbCircle
 10
110.7974003829
 20
48.5561767106
 30
0.0
 40
36.00000000000001
100
AcDbArc
 50
262.8
 51
265.2
  0
ARC
  5
142
330
1F
100
AcDbEntity
  8
0
  6
Continuous
 62
     7
370
    25
100
AcDbCircle
 10
110.7974003829
 20
48.5561767106
 30
0.0
 40
36.00000000000001
100
AcDbArc
 50
277.2
 51
279.6
  0
ARC
  5
143
330
1F
100
AcDbEntity
  8
0
  6
Continuous
 62
     7
370
    25
100
AcDbCircle
 10
110.7974003829
 20
48.5561767106
 30
0.0
 40
36.00000000000002
100
AcDbArc
 50
291.6
 51
294.0
  0
ARC
  5
144
330
1F
100
AcDbEntity
  8
0
  6
Continuous
 62
     7
370
    25
100
AcDbCircle
 10
110.7974003829
 20
48.5561767106
 30
0.0
 40
36.00000000000001
100
AcDbArc
 50
306.0
 51
308.4
  0
ARC
  5
145
330
1F
100
AcDbEntity
  8
0
  6
Continuous
 62
     7
370
    25
100
AcDbCircle
 10
110.7974003829
 20
48.5561767106
 30
0.0
 40
36.00000000000001
100
AcDbArc
 50
320.4
 51
322.8
  0
ARC
  5
146
330
1F
100
AcDbEntity
  8
0
  6
Continuous
 62
     7
370
    25
100
AcDbCircle
 10
110.7974003829
 20
48.5561767106
 30
0.0
 40
36.00000000000003
100
AcDbArc
 50
334.8
 51
337.2
  0
ARC
  5
147
330
1F
100
AcDbEntity
  8
0
  6
Continuous
 62
     7
370
    25
100
AcDbCircle
 10
73.7202186585
 20
65.0640015847
 30
0.0
 40
6.086028220240679
100
AcDbArc
 50
297.8075021052
 51
14.1924978948
  0
ARC
  5
148
330
1F
100
AcDbEntity
  8
0
  6
Continuous
 62
     7
370
    25
100
AcDbCircle
 10
110.7974003829
 20
48.5561767106
 30
0.0
 40
36.00000000000001
100
AcDbArc
 50
176.4
 51
178.8
  0
LINE
  5
149
330
1F
100
AcDbEntity
  8
0
  6
Continuous
 62
     7
370
    25
100
AcDbLine
 10
107.7224003829
 20
46.9561767106
 30
0.0
 11
113.8724003829
 21
46.9561767106
 31
0.0
  0
MTEXT
  5
14B
330
1F
100
AcDbEntity
  8
0
  6
Continuous
 62
     7
100
AcDbMText
 10
0.0
 20
7.7201395037
 30
0.0
 40
2.768
 41
0.0
 71
     1
 72
     1
  1
SOLIDWORKS Educational Product.
  7
SLDTEXTSTYLE0
 73
     1
 44
1.0
  0
MTEXT
  5
14C
330
1F
100
AcDbEntity
  8
0
  6
Continuous
 62
     7
100
AcDbMText
 10
0.0
 20
3.5681395037
 30
0.0
 40
2.768
 41
0.0
 71
     1
 72
     1
  1
For Instructional Use Only.
  7
SLDTEXTSTYLE0
 73
     1
 44
1.0
  0
ENDSEC
  0
SECTION
  2
OBJECTS
  0
DICTIONARY
  5
C
330
0
100
AcDbDictionary
281
     1
  3
ACAD_GROUP
350
D
  3
ACAD_LAYOUT
350
1A
  3
ACAD_MLINESTYLE
350
17
  3
ACAD_PLOTSETTINGS
350
19
  3
ACAD_PLOTSTYLENAME
350
E
  3
ACAD_SCALELIST
350
47
  3
DWGPROPS
350
14D
  0
DICTIONARY
  5
D
102
{ACAD_REACTORS
330
C
102
}
330
C
100
AcDbDictionary
281
     1
  0
DICTIONARY
  5
1A
102
{ACAD_REACTORS
330
C
102
}
330
C
100
AcDbDictionary
281
     1
  3
Layout1
350
1E
  3
Layout2
350
26
  3
Model
350
22
  0
DICTIONARY
  5
17
102
{ACAD_REACTORS
330
C
102
}
330
C
100
AcDbDictionary
281
     1
  3
Standard
350
18
  0
DICTIONARY
  5
19
102
{ACAD_REACTORS
330
C
102
}
330
C
100
AcDbDictionary
281
     1
  0
ACDBDICTIONARYWDFLT
  5
E
102
{ACAD_REACTORS
330
C
102
}
330
C
100
AcDbDictionary
281
     1
  3
Normal
350
F
100
AcDbDictionaryWithDefault
340
F
  0
DICTIONARY
  5
47
102
{ACAD_REACTORS
330
C
102
}
330
C
100
AcDbDictionary
281
     1
  3
A0
350
48
  3
A1
350
49
  3
A2
350
4A
  3
A3
350
4B
  3
A4
350
4C
  3
A5
350
4D
  3
A6
350
4E
  3
A7
350
4F
  3
A8
350
50
  3
A9
350
51
  3
B0
350
52
  3
B1
350
53
  3
B2
350
54
  3
B3
350
55
  3
B4
350
56
  3
B5
350
57
  3
B6
350
58
  0
XRECORD
  5
14D
102
{ACAD_REACTORS
330
C
102
}
330
C
100
AcDbXrecord
280
     1
  1
DWGPROPS COOKIE
  2

  3

  4

  6

  7

  8
nesch
  9

300
=
301
=
302
=
303
=
304
=
305
=
306
=
307
=
308
=
309
=
 40
0.0
 41
2460204.669039872
 42
2460204.66904081
  1

 90
        0
  0
LAYOUT
  5
1E
102
{ACAD_REACTORS
330
1A
102
}
330
1A
100
AcDbPlotSettings
  1

  2
none_device
  4

  6

 40
0.0
 41
0.0
 42
0.0
 43
0.0
 44
0.0
 45
0.0
 46
0.0
 47
0.0
 48
0.0
 49
0.0
140
0.0
141
0.0
142
1.0
143
1.0
 70
   688
 72
     1
 73
     0
 74
     5
  7

 75
    16
147
1.0
148
0.0
149
0.0
100
AcDbLayout
  1
Layout1
 70
     1
 71
     1
 10
0.0
 20
0.0
 11
420.0
 21
297.0
 12
0.0
 22
0.0
 32
0.0
 14
1.0000000000E+20
 24
1.0000000000E+20
 34
1.0000000000E+20
 15
-1.0000000000E+20
 25
-1.0000000000E+20
 35
-1.0000000000E+20
146
0.0
 13
0.0
 23
0.0
 33
0.0
 16
1.0
 26
0.0
 36
0.0
 17
0.0
 27
1.0
 37
0.0
 76
     0
330
1B
  0
LAYOUT
  5
26
102
{ACAD_REACTORS
330
1A
102
}
330
1A
100
AcDbPlotSettings
  1

  2
none_device
  4

  6

 40
0.0
 41
0.0
 42
0.0
 43
0.0
 44
0.0
 45
0.0
 46
0.0
 47
0.0
 48
0.0
 49
0.0
140
0.0
141
0.0
142
1.0
143
1.0
 70
   688
 72
     1
 73
     0
 74
     5
  7

 75
    16
147
1.0
148
0.0
149
0.0
100
AcDbLayout
  1
Layout2
 70
     1
 71
     2
 10
0.0
 20
0.0
 11
0.0
 21
0.0
 12
0.0
 22
0.0
 32
0.0
 14
0.0
 24
0.0
 34
0.0
 15
0.0
 25
0.0
 35
0.0
146
0.0
 13
0.0
 23
0.0
 33
0.0
 16
1.0
 26
0.0
 36
0.0
 17
0.0
 27
1.0
 37
0.0
 76
     0
330
23
  0
LAYOUT
  5
22
102
{ACAD_REACTORS
330
1A
102
}
330
1A
100
AcDbPlotSettings
  1

  2
none_device
  4
Letter_(8.50_x_11.00_Inches)
  6

 40
6.35
 41
6.35
 42
6.35000508
 43
6.35000508
 44
215.9
 45
279.4
 46
0.0
 47
0.0
 48
0.0
 49
0.0
140
0.0
141
0.0
142
1.0
143
1.0
 70
  1712
 72
     1
 73
     0
 74
     0
  7

 75
     0
147
1.0
148
0.0
149
0.0
100
AcDbLayout
  1
Model
 70
     1
 71
     0
 10
0.0
 20
0.0
 11
160.0
 21
160.0
 12
0.0
 22
0.0
 32
0.0
 14
0.0
 24
0.0
 34
0.0
 15
160.0
 25
160.0
 35
0.0
146
0.0
 13
0.0
 23
0.0
 33
0.0
 16
1.0
 26
0.0
 36
0.0
 17
0.0
 27
1.0
 37
0.0
 76
     0
330
1F
331
29
  0
MLINESTYLE
  5
18
102
{ACAD_REACTORS
330
17
102
}
330
17
100
AcDbMlineStyle
  2
Standard
 70
     0
  3

 62
   256
 51
90.0
 52
90.0
 71
     2
 49
0.5
 62
   256
  6
BYLAYER
 49
-0.5
 62
   256
  6
BYLAYER
  0
ACDBPLACEHOLDER
  5
F
102
{ACAD_REACTORS
330
E
102
}
330
E
  0
SCALE
  5
48
102
{ACAD_REACTORS
330
47
102
}
330
47
100
AcDbScale
 70
     0
300
1:1
140
1.0
141
1.0
290
     1
  0
SCALE
  5
49
102
{ACAD_REACTORS
330
47
102
}
330
47
100
AcDbScale
 70
     0
300
1:2
140
1.0
141
2.0
290
     0
  0
SCALE
  5
4A
102
{ACAD_REACTORS
330
47
102
}
330
47
100
AcDbScale
 70
     0
300
1:4
140
1.0
141
4.0
290
     0
  0
SCALE
  5
4B
102
{ACAD_REACTORS
330
47
102
}
330
47
100
AcDbScale
 70
     0
300
1:5
140
1.0
141
5.0
290
     0
  0
SCALE
  5
4C
102
{ACAD_REACTORS
330
47
102
}
330
47
100
AcDbScale
 70
     0
300
1:8
140
1.0
141
8.0
290
     0
  0
SCALE
  5
4D
102
{ACAD_REACTORS
330
47
102
}
330
47
100
AcDbScale
 70
     0
300
1:10
140
1.0
141
10.0
290
     0
  0
SCALE
  5
4E
102
{ACAD_REACTORS
330
47
102
}
330
47
100
AcDbScale
 70
     0
300
1:16
140
1.0
141
16.0
290
     0
  0
SCALE
  5
4F
102
{ACAD_REACTORS
330
47
102
}
330
47
100
AcDbScale
 70
     0
300
1:20
140
1.0
141
20.0
290
     0
  0
SCALE
  5
50
102
{ACAD_REACTORS
330
47
102
}
330
47
100
AcDbScale
 70
     0
300
1:30
140
1.0
141
30.0
290
     0
  0
SCALE
  5
51
102
{ACAD_REACTORS
330
47
102
}
330
47
100
AcDbScale
 70
     0
300
1:40
140
1.0
141
40.0
290
     0
  0
SCALE
  5
52
102
{ACAD_REACTORS
330
47
102
}
330
47
100
AcDbScale
 70
     0
300
1:50
140
1.0
141
50.0
290
     0
  0
SCALE
  5
53
102
{ACAD_REACTORS
330
47
102
}
330
47
100
AcDbScale
 70
     0
300
1:100
140
1.0
141
100.0
290
     0
  0
SCALE
  5
54
102
{ACAD_REACTORS
330
47
102
}
330
47
100
AcDbScale
 70
     0
300
2:1
140
2.0
141
1.0
290
     0
  0
SCALE
  5
55
102
{ACAD_REACTORS
330
47
102
}
330
47
100
AcDbScale
 70
     0
300
4:1
140
4.0
141
1.0
290
     0
  0
SCALE
  5
56
102
{ACAD_REACTORS
330
47
102
}
330
47
100
AcDbScale
 70
     0
300
8:1
140
8.0
141
1.0
290
     0
  0
SCALE
  5
57
102
{ACAD_REACTORS
330
47
102
}
330
47
100
AcDbScale
 70
     0
300
10:1
140
10.0
141
1.0
290
     0
  0
SCALE
  5
58
102
{ACAD_REACTORS
330
47
102
}
330
47
100
AcDbScale
 70
     0
300
100:1
140
100.0
141
1.0
290
     0
  0
ENDSEC
  0
EOF
